<svg xmlns="http://www.w3.org/2000/svg" xmlns:xlink="http://www.w3.org/1999/xlink" version="1.1" id="Your_Icon" x="0px" y="0px" width="100px" height="100px" viewBox="5.0 -10.0 100.0 135.0" enable-background="new 0 0 100 100" xml:space="preserve">
<path fill="#FFFFFF" d="M53.644,18.966L12,25.106L41.048,95h45.5L53.644,18.966z M53.644,64.781c0,0-2.057,4.113-6.169,1.286  c0,0-14.911-8.484-16.967-14.396c0,0-3.995-9.279,4.627-10.024c0,0,3.341,0.256,5.913,2.825c0,0,1.285-6.684,10.282-3.341  c8.997,3.341,6.94,14.91,5.397,16.967L53.644,64.781z"/>
<polygon fill="#FFFFFF" points="54.728,17.098 80.644,76.982 88.916,73.709 58.327,3.017 13.369,23.196 "/>
</svg>